The Walking Dead S03E11 720p 440mb DubsTeam (like MrLss)
 
http://minirlss.net/ is down, so here's an alternative to MrLss's 275mb to tide you over.

=====================


Video
ID : 0
Format : AVC
Format/Info : Advanced Video Codec
Format profile : Main@L5.1
Format settings, CABAC : Yes
Format settings, ReFrames : 1 frame
Codec ID : H264
Duration : 43mn 24s
Bit rate : 1 212 Kbps
Width : 1 280 pixels
Height : 720 pixels
Display aspect ratio : 16:9
Frame rate : 30.000 fps
Color space : YUV
Chroma subsampling : 4:2:0
Bit depth : 8 bits
Scan type : Progressive
Bits/(Pixel*Frame) : 0.044
Stream size : 376 MiB (86%)

Audio
ID : 1
Format : MPEG Audio
Format version : Version 1
Format profile : Layer 3
Codec ID : 55
Codec ID/Hint : MP3
Duration : 43mn 24s
Bit rate mode : Constant
Bit rate : 192 Kbps
Channel(s) : 2 channels
Sampling rate : 44.1 KHz
Compression mode : Lossy
Stream size : 59.6 MiB (14%)
Alignment : Split accross interleaves
Interleave, duration : 34 ms (1.02 video frame)
Interleave, preload duration : 127 ms
Writing library : LAMELAME_MAJOR_VERSI